<svg xmlns="http://www.w3.org/2000/svg" viewBox="0 0 48 48" id="Mobile">
  <g fill="#ffffff" class="color000000 svgShape">
    <path d="M34 0H14a4 4 0 0 0-4 4v40a4 4 0 0 0 4 4h20a4 4 0 0 0 4-4V4a4 4 0 0 0-4-4Zm2 44a2 2 0 0 1-2 2H14a2 2 0 0 1-2-2v-2h24Zm0-4H12V7h5.75c1 1.33-.41 1 11.25 1 .62 0 .85-.47 1.25-1H36Zm0-35c-7.5 0-6.52-.3-7.5 1h-9c-1-1.34 0-1-7.5-1V4a2 2 0 0 1 2-2h20a2 2 0 0 1 2 2Z" fill="#ffffff" class="color000000 svgShape"></path>
    <path d="M26 3h-4a1 1 0 0 0 0 2h4a1 1 0 0 0 0-2Z" fill="#ffffff" class="color000000 svgShape"></path>
    <circle cx="20" cy="27" r="2" fill="#ffffff" class="color000000 svgShape"></circle>
    <circle cx="29" cy="27" r="2" fill="#ffffff" class="color000000 svgShape"></circle>
    <path d="M19 11.92a1 1 0 0 0-1-.92h-3a1 1 0 0 0 0 2h2.08c.28 3.4 0 .42.92 10.09a1 1 0 0 0 1 .91h11a1 1 0 0 0 1-.76l2-8A1 1 0 0 0 32 14H19.17zM30.72 16l-1.5 6h-9.31l-.56-6zM29 32H19a3 3 0 0 0 0 6h10a3 3 0 0 0 0-6zm0 4H19a1 1 0 0 1 0-2h10a1 1 0 0 1 0 2z" fill="#ffffff" class="color000000 svgShape"></path>
  </g>
</svg>
