<svg xmlns="http://www.w3.org/2000/svg" fill-rule="evenodd" stroke-linejoin="round" stroke-miterlimit="2" clip-rule="evenodd" viewBox="0 0 320 320" id="shopping">
  <g transform="translate(-1721.99 -254.301)" fill="#ffffff" class="color000000 svgShape">
    <g transform="matrix(1 0 0 1.6975 595.351 860.684)" fill="#ffffff" class="color000000 svgShape">
      <g transform="matrix(4.16386 0 0 2.45293 -2310.83 -1764.56)" fill="#ffffff" class="color000000 svgShape">
        <path d="M880.274,631.73C876.336,631.73 873.139,634.927 873.139,638.865C873.139,642.803 876.336,646 880.274,646C884.212,646 887.409,642.803 887.409,638.865C887.409,634.927 884.212,631.73 880.274,631.73ZM861.788,631.73C857.85,631.73 854.653,634.927 854.653,638.865C854.653,642.803 857.85,646 861.788,646C865.726,646 868.923,642.803 868.923,638.865C868.923,634.927 865.726,631.73 861.788,631.73ZM880.274,635.73C882.004,635.73 883.409,637.135 883.409,638.865C883.409,640.595 882.004,642 880.274,642C878.544,642 877.139,640.595 877.139,638.865C877.139,637.135 878.544,635.73 880.274,635.73ZM861.788,635.73C863.519,635.73 864.923,637.135 864.923,638.865C864.923,640.595 863.519,642 861.788,642C860.058,642 858.653,640.595 858.653,638.865C858.653,637.135 860.058,635.73 861.788,635.73ZM837.192,584.763L853.907,624.162C854.769,626.194 856.763,627.514 858.971,627.514C864.362,627.514 877.7,627.514 883.092,627.514C885.299,627.514 887.293,626.194 888.155,624.162C890.421,618.821 896.384,604.765 899.563,597.272C900.284,595.573 900.105,593.626 899.086,592.088C898.067,590.549 896.345,589.624 894.5,589.624L843.6,589.624L840.875,583.2C840.201,581.612 838.816,580.435 837.14,580.025C834.687,579.425 830.427,578.384 830.427,578.384C829.354,578.122 828.271,578.78 828.009,579.852C827.747,580.924 828.405,582.008 829.477,582.27L836.191,583.911C836.64,584.021 837.011,584.336 837.192,584.763ZM845.297,593.624L857.59,622.6C857.825,623.154 858.368,623.514 858.971,623.514L883.092,623.514C883.694,623.514 884.238,623.154 884.473,622.6C884.473,622.6 895.881,595.71 895.881,595.71C896.077,595.246 896.029,594.715 895.751,594.296C895.473,593.876 895.003,593.624 894.5,593.624L845.297,593.624ZM864.007,610.569L876.221,610.569C877.325,610.569 878.221,609.673 878.221,608.569C878.221,607.465 877.325,606.569 876.221,606.569L864.007,606.569C862.903,606.569 862.007,607.465 862.007,608.569C862.007,609.673 862.903,610.569 864.007,610.569Z" fill="#ffffff" class="color000000 svgShape"></path>
      </g>
    </g>
    <g transform="matrix(1 0 0 1.6975 595.351 860.684)" fill="#ffffff" class="color000000 svgShape">
      <g transform="matrix(.73492 0 0 .43294 -96.471 -442.333)" fill="#ffffff" class="color000000 svgShape">
        <rect width="435.422" height="435.422" x="1664.28" y="196.59" fill="none"></rect>
      </g>
    </g>
  </g>
</svg>
