<svg xmlns="http://www.w3.org/2000/svg" viewBox="0 0 750 750" id="xiaomi">
  <path d="M375,117.18a257.81,257.81,0,1,0,182.31,75.51A256.16,256.16,0,0,0,375,117.18Zm0,475.64c-120.11,0-217.82-97.71-217.82-217.82S254.89,157.18,375,157.18,592.82,254.89,592.82,375,495.11,592.82,375,592.82Z" fill="#ffffff" class="color000000 svgShape"></path>
  <path d="M362.29,288.29H273.71a20,20,0,0,0-20,20V438a20,20,0,0,0,40,0V328.29h68.58a37.57,37.57,0,0,1,37.53,37.53V438a20,20,0,0,0,40,0v-72.2A77.62,77.62,0,0,0,362.29,288.29Z" fill="#ffffff" class="color000000 svgShape"></path>
  <path d="M346.76 338.09a20 20 0 00-20 20v83.62a20 20 0 1040 0V358.09A20 20 0 00346.76 338.09zM476.29 288.29a20 20 0 00-20 20V441.71a20 20 0 0040 0V308.29A20 20 0 00476.29 288.29z" fill="#ffffff" class="color000000 svgShape"></path>
</svg>
